<?xml version="1.0" encoding="UTF-8"?>
<svg version="1.1" xmlns="http://www.w3.org/2000/svg" width="1080" height="1350">
<path d="M0 0 C0 0.66 0 1.32 0 2 C0.54785156 2.07476562 1.09570312 2.14953125 1.66015625 2.2265625 C9.93116001 3.59833873 17.31948772 6.79010988 25 10 C26.79056381 10.69036725 28.58207641 11.37828461 30.375 12.0625 C35.16348662 13.9794724 39.53665382 16.43174671 44 19 C46.01831525 20.10876279 48.03919136 21.21287574 50.0625 22.3125 C51.00222656 22.82425781 51.94195313 23.33601563 52.91015625 23.86328125 C53.94462891 24.42595703 53.94462891 24.42595703 55 25 C55 25.66 55 26.32 55 27 C55.69996094 27.25007813 56.39992188 27.50015625 57.12109375 27.7578125 C60.37273954 29.16082927 63.12114503 30.90418061 66.0625 32.875 C67.08472656 33.55304688 68.10695313 34.23109375 69.16015625 34.9296875 C71.73019124 36.80330311 73.78825399 38.73086338 76 41 C77.73585329 42.43396576 79.48693682 43.8496241 81.25 45.25 C100.22142857 60.66428571 100.22142857 60.66428571 103 69 C104.32285146 69.68723084 105.65730068 70.35240387 107 71 C108.31640625 72.41796875 108.31640625 72.41796875 109.5625 74.1875 C111.48814842 76.88727843 113.4234498 79.56704568 115.4453125 82.1953125 C136.09693052 109.27571245 149.59822428 140.05146797 156.1875 173.375 C156.34234863 174.13901123 156.49719727 174.90302246 156.65673828 175.69018555 C159.99469596 193.51139267 160.29217001 211.44181316 160.25878906 229.51318359 C160.26150587 232.01242677 160.26507065 234.51166915 160.26940918 237.01091003 C160.27751945 243.04481084 160.27641924 249.07864228 160.2705839 255.11254023 C160.26603282 260.02558866 160.26546923 264.93862319 160.26763153 269.85167313 C160.26809123 270.90798233 160.26809123 270.90798233 160.26856022 271.98563112 C160.26919979 273.41706335 160.26984822 274.84849558 160.2705054 276.27992781 C160.27618414 289.64657372 160.26969005 303.01319203 160.25890467 316.37983342 C160.24997532 327.79880901 160.25152091 339.2177439 160.26074219 350.63671875 C160.2714953 363.95848274 160.27563096 377.28022262 160.26951766 390.60199034 C160.26888069 392.02822534 160.26825195 393.45446034 160.26763153 394.88069534 C160.26732298 395.58207626 160.26701443 396.28345718 160.26669653 397.00609206 C160.26498434 401.90069797 160.26785252 406.79528832 160.27259064 411.68989182 C160.27885374 418.30405948 160.27426402 424.91816318 160.26280212 431.53232765 C160.26018559 433.9419384 160.26086825 436.35155567 160.26532745 438.76116371 C160.29733485 457.83377 159.74617278 476.90642699 155.75 495.625 C155.43011108 497.17102905 155.43011108 497.17102905 155.10375977 498.74829102 C151.06535621 517.62859112 144.77305522 534.80082127 136.03466797 551.95410156 C135.03076553 553.93916584 134.04508174 555.93208252 133.06640625 557.9296875 C132.76001221 558.55262695 132.45361816 559.17556641 132.13793945 559.81738281 C131.3038141 561.51544829 130.47213484 563.21471472 129.640625 564.9140625 C127.94041815 568.11207061 126.15267221 571.08601689 124 574 C123.34 574 122.68 574 122 574 C121.59587891 575.09828125 121.59587891 575.09828125 121.18359375 576.21875 C110.92388109 600.32738173 84.0644777 622.01597685 62.80859375 636.1171875 C61.16157035 637.22131167 59.53472068 638.35900631 57.96484375 639.5703125 C52.12690412 644.04719106 45.79838064 647.21791876 39.1875 650.375 C38.26767334 650.81602051 37.34784668 651.25704102 36.40014648 651.71142578 C32.24458058 653.65639023 28.54885335 655.23119391 24 656 C24 656.66 24 657.32 24 658 C-1.74163504 668.08185168 -28.61818093 675.13361391 -56.44140625 675.16796875 C-57.40795639 675.17129715 -58.37450653 675.17462555 -59.37034607 675.17805481 C-61.40485158 675.18308531 -63.43936523 675.18546434 -65.47387695 675.18530273 C-68.53025502 675.18747706 -71.58626424 675.20564136 -74.64257812 675.22460938 C-90.5089094 675.271393 -105.67480794 673.94414365 -121.25 670.8125 C-122.29849121 670.60254395 -123.34698242 670.39258789 -124.42724609 670.17626953 C-137.37037024 667.45643668 -149.90723389 663.34934694 -162 658 C-162 657.34 -162 656.68 -162 656 C-163.155 655.67 -164.31 655.34 -165.5 655 C-176.13581121 651.4547296 -188.05722353 645.75007647 -197 639 C-197 638.34 -197 637.68 -197 637 C-197.58652344 636.71253906 -198.17304688 636.42507813 -198.77734375 636.12890625 C-206.1960356 632.36088877 -217.4273705 626.49425913 -221.0078125 618.84765625 C-221.85628706 616.78187627 -221.85628706 616.78187627 -224.17578125 616.1796875 C-228.38386507 614.42195401 -231.03758687 611.35719926 -234.1875 608.125 C-234.81591797 607.49980469 -235.44433594 606.87460937 -236.09179688 606.23046875 C-240.73258094 601.53508722 -240.73258094 601.53508722 -242.04833984 598.90234375 C-242.9408318 596.78129381 -242.9408318 596.78129381 -245.30859375 595.1796875 C-248.58735202 592.52432159 -250.68969304 589.57968958 -253.0625 586.125 C-253.48337891 585.52558594 -253.90425781 584.92617188 -254.33789062 584.30859375 C-255.570338 582.54686278 -256.78615471 580.7745809 -258 579 C-258.59337158 578.15260254 -258.59337158 578.15260254 -259.19873047 577.28808594 C-262 573.22852508 -262 573.22852508 -262 571 C-262.99 570.67 -263.98 570.34 -265 570 C-266.56225586 567.55078125 -266.56225586 567.55078125 -268.21484375 564.3125 C-268.51185684 563.7359668 -268.80886993 563.15943359 -269.11488342 562.56542969 C-270.06497814 560.71484078 -271.00103601 558.85751691 -271.9375 557 C-272.56360981 555.77951493 -273.19055435 554.55945769 -273.81835938 553.33984375 C-277.07839638 546.97848079 -280.2303809 540.59124065 -283 534 C-283.33692871 533.21512207 -283.67385742 532.43024414 -284.02099609 531.62158203 C-286.57713642 525.49045391 -288.43394994 519.30962583 -290.0625 512.875 C-290.44873535 511.36123779 -290.44873535 511.36123779 -290.84277344 509.81689453 C-296.78280409 486.17346454 -298.30443167 463.01357215 -298.25878906 438.69628906 C-298.26150653 436.2313222 -298.26507166 433.76635615 -298.26940918 431.3013916 C-298.27751371 425.3541935 -298.27642214 419.40704203 -298.2705839 413.45984533 C-298.26602922 408.61549644 -298.26547075 403.77116165 -298.26763153 398.92681122 C-298.267938 398.23193282 -298.26824446 397.53705443 -298.26856022 396.82111911 C-298.26919981 395.40853661 -298.26984823 393.99595411 -298.2705054 392.58337161 C-298.2761824 379.39641889 -298.26969327 366.20949415 -298.25890467 353.02254602 C-298.24997951 341.76599323 -298.2515178 330.50948173 -298.26074219 319.25292969 C-298.27150542 306.11278155 -298.27562506 292.97265787 -298.26951766 279.83250594 C-298.26888071 278.42448791 -298.26825197 277.01646988 -298.26763153 275.60845184 C-298.26732298 274.91608038 -298.26701443 274.22370892 -298.26669653 273.5103565 C-298.26498703 268.68728002 -298.26784661 263.86421935 -298.27259064 259.04114532 C-298.27886781 252.51724094 -298.27424176 245.99339533 -298.26280212 239.46949768 C-298.26019194 237.09662248 -298.26085688 234.72374065 -298.26532745 232.35086823 C-298.29963675 212.26430593 -298.06553231 191.75496571 -293.6875 172.0625 C-293.46368652 171.02351562 -293.23987305 169.98453125 -293.00927734 168.9140625 C-292.55892238 166.86001223 -292.09945642 164.80793097 -291.62939453 162.75830078 C-291.085285 160.37375872 -290.58359248 157.98510958 -290.08984375 155.58984375 C-287.68073159 144.89297939 -283.13311796 135.06824114 -278.625 125.125 C-278.30452698 124.41657959 -277.98405396 123.70815918 -277.65386963 122.97827148 C-272.21964436 111.03730836 -266.11413343 99.69455336 -258.5625 88.9375 C-257.85927612 87.92852661 -257.85927612 87.92852661 -257.1418457 86.89916992 C-256.20347635 85.55637794 -255.26271966 84.21525044 -254.31933594 82.87597656 C-253.11287623 81.16049981 -251.91905219 79.43615454 -250.7265625 77.7109375 C-247.17680906 72.66511939 -243.79422084 68.91364966 -239 65 C-236.68097137 62.25595367 -234.45228083 59.4564964 -232.24609375 56.62109375 C-230.0028636 54.0033417 -227.7456385 52.0728108 -225 50 C-223.16338861 48.52490551 -221.33013157 47.04562629 -219.5 45.5625 C-218.5821875 44.82128906 -217.664375 44.08007812 -216.71875 43.31640625 C-213.99553489 41.08299431 -213.99553489 41.08299431 -211.77734375 38.6328125 C-207.89529387 34.9527821 -203.55137464 32.19937276 -199.0625 29.3125 C-198.18142578 28.73177734 -197.30035156 28.15105469 -196.39257812 27.55273438 C-192.03928853 24.73206359 -188.08480099 22.29842529 -183 21 C-183 20.34 -183 19.68 -183 19 C-151.25154803 3.39435777 -151.25154803 3.39435777 -139 2 C-139 1.34 -139 0.68 -139 0 C-92.23523134 -11.62149599 -46.78976705 -12.4030495 0 0 Z M-132 15 C-132.99128906 15.27328125 -133.98257813 15.5465625 -135.00390625 15.828125 C-144.25631471 18.65918183 -152.96878554 22.93578345 -161.74072266 26.97314453 C-164.8064435 28.36653354 -167.89795791 29.68969072 -171 31 C-171 31.66 -171 32.32 -171 33 C-171.72316406 33.10441406 -172.44632812 33.20882812 -173.19140625 33.31640625 C-182.11219148 35.4876683 -190.39885647 43.30277377 -197.79296875 48.67578125 C-199.57209956 49.96516351 -201.35919882 51.24440997 -203.17578125 52.48046875 C-208.64581193 56.28723529 -213.18143365 61.04024231 -217.81445312 65.79980469 C-220.66487298 68.71978643 -223.52435335 71.47651905 -226.68359375 74.0625 C-229.81889043 76.68941732 -231.81085675 79.52929581 -234 83 C-235.64960042 84.86936627 -237.31771069 86.72249607 -239 88.5625 C-246.7178166 97.35025664 -262 116.96902791 -262 129 C-262.66 129 -263.32 129 -264 129 C-268.18332167 138.17541886 -271.55708045 147.1961781 -274 157 C-274.19980469 157.78342773 -274.39960938 158.56685547 -274.60546875 159.37402344 C-279.6364869 179.32277269 -282.19055253 199.45678135 -283 220 C-282.34 220 -281.68 220 -281 220 C-279.55026591 218.02691791 -278.20446639 216.05179481 -276.875 214 C-271.84340934 206.48020397 -266.12905347 200.5876365 -259 195 C-258.2575 194.236875 -257.515 193.47375 -256.75 192.6875 C-248.84273418 184.95994477 -239.83685637 179.88403358 -230 175 C-230 174.34 -230 173.68 -230 173 C-228.865625 172.62875 -227.73125 172.2575 -226.5625 171.875 C-219.00397374 169.3595419 -211.50832403 166.66042977 -204 164 C-204 152.12 -204 140.24 -204 128 C-197.73 128 -191.46 128 -185 128 C-184.61779297 126.53062988 -184.23558594 125.06125977 -183.84179688 123.54736328 C-182.38629344 117.95812181 -180.92315623 112.37089984 -179.45800781 106.78417969 C-178.83165982 104.39179852 -178.20723016 101.99891407 -177.58496094 99.60546875 C-173.87612746 85.34626431 -169.96819921 71.19695453 -165.46325684 57.165802 C-165.14087036 56.15057465 -164.81848389 55.13534729 -164.48632812 54.08935547 C-164.19890747 53.20005341 -163.91148682 52.31075134 -163.61535645 51.39450073 C-162.83406681 48.76636485 -162.83406681 48.76636485 -163 45 C-159.12670702 47.58219532 -158.86686569 50.17678712 -157.84375 54.46484375 C-157.65534546 55.21278702 -157.46694092 55.96073029 -157.27282715 56.7313385 C-156.67086859 59.1308018 -156.08507662 61.53387043 -155.5 63.9375 C-155.10656663 65.52175743 -154.71204682 67.10574547 -154.31640625 68.68945312 C-153.73821848 71.00598262 -153.16052271 73.32261878 -152.58569336 75.63998413 C-150.02462648 86.38444983 -150.02462648 86.38444983 -146.5390625 96.84765625 C-144.30703956 102.55284656 -142.91623525 108.51745865 -141.375 114.4375 C-140.76088895 116.79116943 -140.14386592 119.14408169 -139.5234375 121.49609375 C-139.25450684 122.52919678 -138.98557617 123.5622998 -138.70849609 124.62670898 C-138.22446854 126.93396084 -138.22446854 126.93396084 -137 128 C-135.58672053 128.15620555 -134.1664541 128.25056173 -132.74609375 128.31640625 C-131.9770874 128.35451416 -131.20808105 128.39262207 -130.41577148 128.43188477 C-128.9415271 128.49653931 -128.9415271 128.49653931 -127.4375 128.5625 C-124.323125 128.706875 -121.20875 128.85125 -118 129 C-118 140.22 -118 151.44 -118 163 C-112.37365215 165.50059904 -106.77308133 167.96343424 -101.0625 170.25 C-100.40443359 170.518125 -99.74636719 170.78625 -99.06835938 171.0625 C-95.64247084 172.51332194 -95.64247084 172.51332194 -92 173 C-92 173.66 -92 174.32 -92 175 C-90.906875 175.515625 -89.81375 176.03125 -88.6875 176.5625 C-77.66052432 182.09547013 -67.65172658 189.22270409 -59 198 C-57.84142581 199.13833119 -56.68116007 200.27494238 -55.51953125 201.41015625 C-54.28377668 202.62752552 -53.0481009 203.84497477 -51.8125 205.0625 C-51.18408203 205.67416016 -50.55566406 206.28582031 -49.90820312 206.91601562 C-49.30556641 207.51220703 -48.70292969 208.10839844 -48.08203125 208.72265625 C-47.53780518 209.25640869 -46.9935791 209.79016113 -46.43286133 210.34008789 C-44.8979546 212.11821549 -43.96035121 213.86469234 -43 216 C-42.34 216 -41.68 216 -41 216 C-40.01 218.475 -40.01 218.475 -39 221 C-38.34 221 -37.68 221 -37 221 C-37 221.66 -37 222.32 -37 223 C-35.33271266 222.71190255 -33.6662033 222.41930221 -32 222.125 C-31.071875 221.96257812 -30.14375 221.80015625 -29.1875 221.6328125 C-25.93416305 221.03494878 -25.93416305 221.03494878 -22.55859375 219.99902344 C-17.04825788 218.61916312 -11.53102649 218.53825733 -5.875 218.3828125 C-4.69993896 218.34527863 -3.52487793 218.30774475 -2.31420898 218.26907349 C10.19323918 217.90428323 22.70091199 217.84850479 35.21289062 217.86962891 C39.05342408 217.87507577 42.89384465 217.86959472 46.734375 217.86328125 C49.21875025 217.86394084 51.70312544 217.86521952 54.1875 217.8671875 C55.31470459 217.86516327 56.44190918 217.86313904 57.60327148 217.86105347 C76.68691807 217.91710389 76.68691807 217.91710389 84.3125 221.25 C85.25738281 221.64703125 86.20226562 222.0440625 87.17578125 222.453125 C98.60781986 228.71465652 104.39118967 240.38573333 108.140625 252.453125 C113.29705053 270.58135954 116.95283936 289.15080731 120.69140625 307.61262512 C121.38940051 311.05371665 122.10051891 314.49005533 122.86083984 317.91796875 C125.35297031 329.17100068 126.18658156 339.72824061 126.18530273 351.22875977 C126.18749194 353.42939535 126.20571318 355.62953056 126.22460938 357.83007812 C126.25109924 364.70589498 126.1175435 371.28937676 124.4309082 378.00415039 C123.85930701 380.31134556 123.85930701 380.31134556 124 384 C123.34 384 122.68 384 122 384 C121.731875 384.8971875 121.46375 385.794375 121.1875 386.71875 C117.05944759 399.86333795 111.77111589 412.25668054 103 423 C101.62354138 424.97491889 100.31211218 426.98136587 99 429 C103.47317141 430.63104627 107.86193262 431.58048988 112.55859375 432.25390625 C113.26597183 432.35968491 113.97334991 432.46546356 114.7021637 432.57444763 C116.94656151 432.90884801 119.19197314 433.23577693 121.4375 433.5625 C122.94082792 433.78531728 124.44408393 434.00862027 125.94726562 434.23242188 C132.29534342 435.17492685 138.64669272 436.09336816 145 437 C145.04568642 407.28368072 145.08105091 377.56736263 145.10213066 347.85101577 C145.10463189 344.33777022 145.10722055 340.82452474 145.10986328 337.3112793 C145.1103879 336.61189486 145.11091252 335.91251043 145.11145304 335.19193252 C145.1201409 323.88751597 145.1359019 312.5831199 145.15430559 301.27871547 C145.1730498 289.66777612 145.18397669 278.05684866 145.18817699 266.4458949 C145.19077977 259.92908706 145.19687903 253.41232556 145.21146011 246.89553261 C145.22508679 240.75525092 145.22921237 234.61503444 145.22621536 228.47473907 C145.22676325 226.22745344 145.23071025 223.9801655 145.23841095 221.73289299 C145.76299703 205.18539292 145.76299703 205.18539292 143 189 C140.32236608 186.7686384 139.10181303 186.11229525 136 185 C134.39173301 184.13255951 132.78779865 183.25705437 131.1875 182.375 C120.44415861 177.11658742 109.21113653 177.30942249 97.546875 178.55859375 C86.21498628 179.76200499 77.03467898 180.31669126 66 177 C64.33700185 176.64882192 62.67131891 176.30916339 61 176 C61 175.34 61 174.68 61 174 C58.3401132 172.17935335 55.57422223 170.58403293 52.796875 168.94921875 C49.89365991 166.92588868 48.15703402 164.77264771 46 162 C45.34 162 44.68 162 44 162 C43.67 161.01 43.34 160.02 43 159 C40.36458982 156.59004634 40.36458982 156.59004634 37 156 C37 155.34 37 154.68 37 154 C25.92347666 148.70788329 14.89322915 147.12778586 3 151 C0.23746259 152.20832187 -2.3482636 153.55359833 -5 155 C-5.43570312 154.3709375 -5.87140625 153.741875 -6.3203125 153.09375 C-15.72389485 139.24220128 -15.72389485 139.24220128 -28 128 C-28.99 128 -29.98 128 -31 128 C-31 127.34 -31 126.68 -31 126 C-42.14096038 121.85452637 -53.70335628 119.521032 -65.11328125 124.09765625 C-71.56032115 127.18102316 -75.042587 131.21824768 -79 137 C-83.41743795 135.61166236 -86.0833938 133.60286648 -89 130 C-88.60483224 124.04698894 -82.95259795 119.0000766 -79 115 C-70.51761172 109.12757734 -61.04928244 107.78252609 -51 107 C-53.45339971 99.14912093 -58.75012478 93.44677157 -65.63671875 89.1875 C-75.62205426 84.17007522 -86.64964473 85.57281049 -96.921875 88.96484375 C-107.8129298 93.15479618 -116.17974027 99.66315622 -124.02734375 108.21484375 C-126.07958684 110.07202215 -127.29582414 110.61887454 -130 111 C-132.64039409 97.75087966 -132.64039409 97.75087966 -132 94 C-129.84375 92.109375 -129.84375 92.109375 -127 90 C-126.06285156 89.30261719 -125.12570312 88.60523438 -124.16015625 87.88671875 C-109.22296384 77.28187723 -92.96382604 68.71845301 -74 71 C-69.56468807 72.07721943 -65.29745711 73.470775 -61 75 C-59.00092528 75.66943611 -57.00119153 76.33691863 -55 77 C-55 77.66 -55 78.32 -55 79 C-51.36676311 81.96235695 -51.36676311 81.96235695 -47 83 C-47 83.66 -47 84.32 -47 85 C-46.29875 85.66 -45.5975 86.32 -44.875 87 C-40.42506346 91.28652079 -37.22336598 96.9594444 -34.9296875 102.66015625 C-32.13514265 109.52231637 -29.03374909 111.39994786 -22.33984375 114.3125 C-13.77964035 118.6376554 -5.9477105 125.81068607 -1 134 C-0.34 134.99 0.32 135.98 1 137 C2.72669922 136.51660156 2.72669922 136.51660156 4.48828125 136.0234375 C19.09761279 132.39438834 33.59684634 135.63233237 46.71484375 142.5859375 C52.84922093 146.38191107 57.22741083 150.8520769 61 157 C65.53060467 162.82506315 74.10781174 164.05084105 81 165 C84.32988054 165.22846522 87.59518229 165.37936945 90.84790039 164.50097656 C95.88825769 163.32765686 101.28866748 163.77135337 106.4375 163.75 C107.64599609 163.729375 108.85449219 163.70875 110.09960938 163.6875 C117.53935261 163.65562108 124.17912522 164.44219324 131.37524414 166.35253906 C134.03487656 167.11974792 134.03487656 167.11974792 137 167 C135.54614605 152.40211953 130.08617072 137.77287826 123 125 C122.51660156 124.02160156 122.03320312 123.04320312 121.53515625 122.03515625 C121.02855469 121.03355469 120.52195312 120.03195312 120 119 C119.54625 118.0925 119.0925 117.185 118.625 116.25 C116.61509487 113.46705443 115.34159994 112.73436341 112 112 C109.29000899 112.50749089 109.29000899 112.50749089 106.625 113.6875 C105.65949219 114.07035156 104.69398438 114.45320313 103.69921875 114.84765625 C101.59924297 115.74417268 99.51492592 116.67740221 97.4375 117.625 C79.67756408 124.72897437 54.63645684 123.93799267 37.12109375 116.83203125 C34.39123088 115.59808767 31.69634817 114.30521255 29 113 C27.54378557 112.37007887 26.08552594 111.74485892 24.625 111.125 C16.26067893 107.39578104 8.35523857 103.69551906 2 97 C0.53596315 95.66404175 -0.92828926 94.32825967 -2.40283203 93.00390625 C-8.2346579 87.7639838 -13.6269138 82.5596293 -18 76 C-18.66 76 -19.32 76 -20 76 C-20.23847656 75.36835938 -20.47695313 74.73671875 -20.72265625 74.0859375 C-22.47307095 69.85710688 -24.46037163 65.75173643 -26.4375 61.625 C-27.97116997 58.422557 -29.49522966 55.21613252 -31 52 C-31.44375977 51.05640625 -31.44375977 51.05640625 -31.89648438 50.09375 C-37.49958517 37.69184948 -37.578444 23.37350078 -38 10 C-46.62882358 5.68558821 -60.67004329 7.75750231 -70.1875 7.75 C-71.07406281 7.74899292 -71.96062561 7.74798584 -72.87405396 7.74694824 C-93.06156492 7.76242824 -112.50008376 9.58913744 -132 15 Z M-22 13 C-22.46896517 30.61224748 -19.54365437 45.83354835 -10.5 61.0625 C-10.13253662 61.68165283 -9.76507324 62.30080566 -9.38647461 62.9387207 C-6.98641475 66.81264105 -4.26020033 69.84068535 -1 73 C-0.02002056 74.35965734 0.93922255 75.73455103 1.875 77.125 C7.00857677 83.85369253 14.07195084 88.29621925 21 93 C21.86882812 93.61230469 22.73765625 94.22460938 23.6328125 94.85546875 C37.25912597 103.83959746 54.84136861 106.39855798 70.8125 106.375 C71.95452881 106.37338867 73.09655762 106.37177734 74.27319336 106.37011719 C82.8174985 106.2460487 90.04279191 105.28498409 98 102 C98.93457031 101.6184375 99.86914062 101.236875 100.83203125 100.84375 C102.91886182 99.94618846 104.9665484 99.0113463 107 98 C105.6446674 95.46326712 105.6446674 95.46326712 104 93 C103.34 93 102.68 93 102 93 C101.60167969 92.12601563 101.60167969 92.12601563 101.1953125 91.234375 C99.96697004 88.93825772 98.59685061 87.19643982 96.875 85.25 C96.33617187 84.63640625 95.79734375 84.0228125 95.2421875 83.390625 C94.83226562 82.93171875 94.42234375 82.4728125 94 82 C90.31257807 82.64129077 86.99358903 83.66537048 83.5 85 C69.08786391 90.50575986 51.22457525 89.7787337 37 84 C35.9275 83.45988281 34.855 82.91976562 33.75 82.36328125 C31.21291204 80.85194779 31.21291204 80.85194779 29 81 C28.67 80.01 28.34 79.02 28 78 C24.37039924 75.02797988 24.37039924 75.02797988 20 74 C19.74089844 73.43925781 19.48179687 72.87851562 19.21484375 72.30078125 C17.8640713 69.7425659 16.27130857 67.52103429 14.5625 65.1875 C11.74740243 61.22876904 9.68023186 57.54650974 8 53 C7.34 53 6.68 53 6 53 C5.80083984 51.94232422 5.80083984 51.94232422 5.59765625 50.86328125 C5.20312063 48.97312039 4.75325711 47.09357147 4.24609375 45.23046875 C1.88265057 36.33615841 1.68408977 28.11459512 2 19 C-5.87873685 15.61164971 -13.33453808 12.81852436 -22 13 Z M17 25 C17.62443526 37.53176978 19.88069874 48.86081519 28.25 58.625 C29.1575 59.40875 30.065 60.1925 31 61 C31.61359375 61.56589844 32.2271875 62.13179687 32.859375 62.71484375 C40.76196046 69.53587098 51.51307102 73.18339621 62 73 C68.58760496 72.38771421 74.91474374 71.71091303 81 69 C80.41992188 68.32904297 80.41992188 68.32904297 79.828125 67.64453125 C79.04695313 66.73767578 79.04695313 66.73767578 78.25 65.8125 C77.73953125 65.22082031 77.2290625 64.62914062 76.703125 64.01953125 C75.48635238 62.57670684 74.32771131 61.08404335 73.2109375 59.5625 C70.56757121 56.49881045 67.71607222 54.42855402 64.375 52.1875 C63.78976562 51.78080078 63.20453125 51.37410156 62.6015625 50.95507812 C59.5752483 48.71290955 59.5752483 48.71290955 56 48 C56 47.34 56 46.68 56 46 C54.24040598 44.70866161 54.24040598 44.70866161 52.0625 43.5 C48.10545906 41.21091811 48.10545906 41.21091811 47 39 C45.11235097 38.31527335 45.11235097 38.31527335 42.9375 37.875 C41.83728516 37.62363281 41.83728516 37.62363281 40.71484375 37.3671875 C40.14894531 37.24601562 39.58304688 37.12484375 39 37 C39 36.34 39 35.68 39 35 C37.2984375 34.566875 37.2984375 34.566875 35.5625 34.125 C34.386875 33.75375 33.21125 33.3825 32 33 C31.67 32.34 31.34 31.68 31 31 C26.63043025 28.33028674 21.89331723 26.46799517 17 25 Z M-162 107 C-163.71133892 110.83013948 -165.31664017 114.68160913 -166.75 118.625 C-167.01296875 119.33914063 -167.2759375 120.05328125 -167.546875 120.7890625 C-168.24439377 123.46368759 -168.24439377 123.46368759 -167 128 C-163.04 128 -159.08 128 -155 128 C-155.53145256 120.66595467 -156.87352431 114.03475605 -159 107 C-159.99 107 -160.98 107 -162 107 Z M-190 143 C-190 148.61 -190 154.22 -190 160 C-187.22916016 159.75636719 -187.22916016 159.75636719 -184.40234375 159.5078125 C-177.11322091 158.9491607 -169.8700986 158.85166546 -162.5625 158.875 C-161.35529297 158.87113281 -160.14808594 158.86726563 -158.90429688 158.86328125 C-150.54558352 158.87222583 -142.33094197 159.32668461 -134 160 C-134 154.39 -134 148.78 -134 143 C-144.09374636 142.1027781 -154.11680098 141.88863447 -164.25 141.875 C-165.5282666 141.87048828 -166.8065332 141.86597656 -168.12353516 141.86132812 C-175.48358783 141.87277604 -182.68157897 142.21320729 -190 143 Z M-190 174 C-190 174.66 -190 175.32 -190 176 C-191.010625 176.061875 -192.02125 176.12375 -193.0625 176.1875 C-208.75676307 178.22858166 -225.98374516 186.45578676 -238.0625 196.5625 C-240.63694237 198.69873941 -243.13199075 200.30860993 -246 202 C-251.6553281 206.01825944 -255.89727491 211.35657417 -260.1875 216.75 C-262 219 -262 219 -263.87890625 220.77734375 C-266.2721274 223.28515744 -267.94740347 225.85162347 -269.75 228.8125 C-270.08781494 229.36711914 -270.42562988 229.92173828 -270.77368164 230.49316406 C-273.86604548 235.63783028 -276.69938344 240.91587962 -279.47363281 246.23754883 C-281.91119373 250.91119373 -281.91119373 250.91119373 -283 252 C-283.09295815 253.44289787 -283.11746513 254.89029785 -283.11352539 256.33618164 C-283.11344986 257.2570607 -283.11337433 258.17793976 -283.11329651 259.12672424 C-283.10813522 260.12775681 -283.10297394 261.12878937 -283.09765625 262.16015625 C-283.0962413 263.17975937 -283.09482635 264.19936249 -283.09336853 265.24986267 C-283.08775097 268.52077107 -283.0751955 271.79161213 -283.0625 275.0625 C-283.05748726 277.27408756 -283.05292396 279.48567618 -283.04882812 281.69726562 C-283.03777584 287.13153357 -283.02102063 292.56576197 -283 298 C-252.41482757 299.35722087 -222.03814784 299.32538337 -191.5625 296.125 C-190.39178452 296.00350082 -190.39178452 296.00350082 -189.19741821 295.87954712 C-175.85496558 294.46645856 -162.66287737 292.6181172 -150 288 C-148.58400087 287.54075704 -147.16598715 287.08768247 -145.74609375 286.640625 C-132.63001075 282.43485895 -119.48558378 278.09856284 -108.359375 269.75390625 C-105.79211756 267.84546488 -103.14566003 266.1394514 -100.4375 264.4375 C-94.36548446 260.60432818 -88.35927924 256.71637377 -82.5390625 252.5078125 C-81.92458252 252.0641333 -81.31010254 251.6204541 -80.67700195 251.16333008 C-79.46411879 250.28459726 -78.25414755 249.40182633 -77.04760742 248.5144043 C-73.50923214 245.94685405 -69.98068166 243.85442985 -66 242 C-66 241.34 -66 240.68 -66 240 C-65.45859375 239.90847656 -64.9171875 239.81695313 -64.359375 239.72265625 C-61.27832394 238.77895684 -58.9421373 237.20020895 -56.25 235.4375 C-55.26515625 234.79683594 -54.2803125 234.15617187 -53.265625 233.49609375 C-52.51796875 233.00238281 -51.7703125 232.50867188 -51 232 C-52.37732999 227.89715986 -54.23643659 225.33157616 -57.1875 222.1875 C-59.96442613 219.20373468 -62.66418559 216.2121386 -65.25 213.0625 C-81.92796324 193.94669062 -105.26807859 181.93298035 -129.5625 175.859375 C-131.88910532 175.27772367 -134.2023677 174.64036323 -136.5 173.953125 C-144.65134236 171.7333398 -152.67002377 171.81678844 -161.0625 171.8125 C-162.29677734 171.80025391 -163.53105469 171.78800781 -164.80273438 171.77539062 C-173.40428258 171.76188741 -181.52506273 172.56073662 -190 174 Z M-21 234 C-22.03511719 234.29003906 -23.07023437 234.58007812 -24.13671875 234.87890625 C-31.2727738 237.06266701 -37.58455168 240.21134942 -44 244 C-44 244.66 -44 245.32 -44 246 C-44.57621094 246.12632812 -45.15242187 246.25265625 -45.74609375 246.3828125 C-48.02140507 247.00586135 -49.9525036 247.82610005 -52.0625 248.875 C-52.73410156 249.20242188 -53.40570312 249.52984375 -54.09765625 249.8671875 C-56.0181635 250.8974746 -56.0181635 250.8974746 -57.328125 252.37890625 C-60.27025247 255.23167004 -63.99412183 257.08174431 -67.52539062 259.12695312 C-69.04863218 260.03335896 -70.5287335 261.01146003 -72 262 C-72 262.66 -72 263.32 -72 264 C-72.928125 264.268125 -73.85625 264.53625 -74.8125 264.8125 C-77.85688595 265.946683 -78.89711622 266.69684158 -81 269 C-81.99 269.33 -82.98 269.66 -84 270 C-85.02297922 270.97648017 -86.01904252 271.98131338 -87 273 C-89.71641057 275.30894899 -91.60152395 276.86717465 -95 278 C-95 278.66 -95 279.32 -95 280 C-95.99 280 -96.98 280 -98 280 C-98 280.66 -98 281.32 -98 282 C-98.53625 282.09925781 -99.0725 282.19851563 -99.625 282.30078125 C-102.68361005 283.2012602 -105.21230241 284.63991788 -108 286.1875 C-109.18188926 286.82886709 -110.36418858 287.46947906 -111.546875 288.109375 C-113.58801184 289.22692051 -115.62239083 290.35723024 -117.640625 291.515625 C-133.92914127 300.39140332 -152.68169833 304.92861673 -171 307 C-172.63803871 307.19255633 -174.27605934 307.38526647 -175.9140625 307.578125 C-178.2204134 307.84904611 -180.52618269 308.11472108 -182.8359375 308.35498047 C-186.20917904 308.45432021 -186.20917904 308.45432021 -189 310 C-193.11916266 310.53023807 -197.27535288 310.74176535 -201.41796875 311.0234375 C-202.70938278 311.11152679 -204.00079681 311.19961609 -205.3313446 311.29037476 C-220.98070993 312.30615587 -236.63432895 312.45466846 -252.3125 312.625 C-262.439375 312.74875 -272.56625 312.8725 -283 313 C-283 336.43 -283 359.86 -283 384 C-278.53067743 384.63847465 -274.55351957 385.08719039 -270.10571289 385.18847656 C-254.00693629 385.62038242 -238.08548034 388.2551759 -222.1897583 390.66864014 C-220.12303732 390.98138168 -218.05556523 391.28853741 -215.98779297 391.59423828 C-202.6238955 393.59873643 -189.94321678 396.2082217 -177.0625 400.3125 C-165.58127675 403.94517043 -155.30921493 404.42755322 -143.33007812 404.07348633 C-129.73262542 403.73139511 -119.86713528 407.5165803 -108.18188477 414.23242188 C-100.82384623 418.44231152 -93.96934339 419.37084732 -85.66796875 420 C-84.18203972 420.12181641 -84.18203972 420.12181641 -82.66609192 420.24609375 C-79.50705702 420.50404881 -76.34737475 420.75256467 -73.1875 421 C-49.23062068 422.91132407 -49.23062068 422.91132407 -38.61328125 424.0625 C-37.86467331 424.14177734 -37.11606537 424.22105469 -36.34477234 424.30273438 C-31.24505188 424.87747406 -31.24505188 424.87747406 -29 426 C-17.77200171 427.49132209 -6.29490334 427.23351725 5.0078125 427.30859375 C5.99715664 427.31516558 6.98650078 427.3217374 8.00582504 427.32850838 C13.23157068 427.36086845 18.45729776 427.38538821 23.68310547 427.4050293 C27.98158325 427.42289475 32.27941158 427.4578332 36.57763672 427.50756836 C41.80578433 427.56794781 47.03332692 427.59852485 52.26180649 427.60820198 C54.24004073 427.61671429 56.21826057 427.63542681 58.19629288 427.6649456 C73.59830003 428.00825955 73.59830003 428.00825955 87 421 C94.20207227 413.67865843 101.48281588 403.06873646 104 393 C54.5 392.67 5 392.34 -46 392 C-46 387.38 -46 382.76 -46 378 C5.15 378 56.3 378 109 378 C111.91465912 372.7995099 111.91465912 372.7995099 112 361 C101.77 360.67 91.54 360.34 81 360 C82.21406539 347.85934608 82.21406539 347.85934608 87.41015625 342.5625 C94.21819649 337.10366135 103.70856025 338.09744213 112 338 C110.90863407 329.94246854 109.72168056 321.9490358 108 314 C103.71077841 312.79981245 99.51095429 312.82468773 95.0859375 312.79467773 C93.73338112 312.77982834 93.73338112 312.77982834 92.35350037 312.76467896 C89.36069365 312.73301971 86.36787204 312.70824197 83.375 312.68359375 C81.27302685 312.66298142 79.17105745 312.64198396 77.0690918 312.62062073 C72.64390212 312.57661378 68.21869874 312.53572943 63.79345703 312.49731445 C58.20604516 312.44879016 52.61870002 312.39512856 47.03135681 312.33930016 C42.69164266 312.29615809 38.35191233 312.25484581 34.01217651 312.2139473 C31.88141485 312.19373395 29.75065711 312.17310245 27.61990356 312.15205002 C17.70389228 312.05515802 7.79112193 311.96226739 -2.125 312.07861328 C-3.43186768 312.09126724 -4.73873535 312.1039212 -6.08520508 312.11695862 C-8.38212623 312.1445026 -10.67895506 312.18463066 -12.9753418 312.24131775 C-18.85365647 312.31301113 -22.77252412 311.71992105 -28 309 C-28.928125 308.71125 -29.85625 308.4225 -30.8125 308.125 C-33 307 -33 307 -34.1875 304.75 C-34.5896875 303.38875 -34.5896875 303.38875 -35 302 C-35.48243164 300.6377832 -35.48243164 300.6377832 -35.97460938 299.24804688 C-37.02432568 295.9229455 -37.65927628 292.72133579 -38.21875 289.28125 C-38.42886719 288.01925781 -38.63898438 286.75726562 -38.85546875 285.45703125 C-39.17902398 283.47593057 -39.50088393 281.49455869 -39.82275391 279.51318359 C-40.13831051 277.58105777 -40.45972192 275.64989107 -40.78125 273.71875 C-40.96751953 272.57341797 -41.15378906 271.42808594 -41.34570312 270.24804688 C-41.99077251 267.04580693 -42.89984711 264.07252003 -44 261 C-43.01 260.62875 -43.01 260.62875 -42 260.25 C-39.70014319 259.29172633 -37.57529403 258.27494791 -35.375 257.125 C-24.87697121 251.81633772 -15.25369191 249.86392156 -3.58837891 249.79467773 C-2.55362427 249.78477814 -1.51886963 249.77487854 -0.45275879 249.76467896 C2.9559503 249.73317678 6.36467331 249.70835118 9.7734375 249.68359375 C12.1414119 249.66301448 14.5093827 249.64201775 16.87734985 249.62062073 C23.10139043 249.56550057 29.32546361 249.51604699 35.54956055 249.46777344 C41.90416353 249.41748492 48.25871934 249.36183725 54.61328125 249.30664062 C67.0754805 249.19918207 79.53772077 249.09770986 92 249 C88.93506239 240.89980774 84.99218066 237.59055293 77.3046875 233.98046875 C73.54005193 232.37890345 70.62569006 231.85907808 66.56079102 231.79467773 C65.44434708 231.77473251 64.32790314 231.75478729 63.17762756 231.73423767 C61.96529953 231.71752518 60.7529715 231.70081268 59.50390625 231.68359375 C58.24601791 231.66281265 56.98812958 231.64203156 55.69212341 231.62062073 C53.01635457 231.57730069 50.34063122 231.53574742 47.66479492 231.49731445 C43.63775517 231.43942994 39.61088874 231.37329728 35.58398438 231.30664062 C28.05618392 231.18540055 20.5282836 231.08576475 13 231 C11.9556781 230.98733093 10.9113562 230.97466187 9.83538818 230.96160889 C7.07644407 230.93122921 4.31765397 230.91054914 1.55859375 230.89453125 C0.78504044 230.88570419 0.01148712 230.87687714 -0.7855072 230.86778259 C-7.80807684 230.8509346 -14.23764304 232.05717735 -21 234 Z M54 265 C55.1467313 271.68423641 56.84590537 278.07053671 58.90234375 284.53125 C60.31813336 289.0053467 61.65154518 293.50515061 63 298 C76.53 298 90.06 298 104 298 C103.030625 293.2975 102.06125 288.595 101.0625 283.75 C100.75836182 282.27241211 100.45422363 280.79482422 100.14086914 279.27246094 C99.89973389 278.10489258 99.65859863 276.93732422 99.41015625 275.734375 C99.04096069 273.94338379 99.04096069 273.94338379 98.66430664 272.11621094 C98.1551379 269.72773985 97.61618014 267.36245 97 265 C91.9096778 264.85723101 86.81934567 264.71482344 81.72900391 264.57275391 C79.99657924 264.52435127 78.26415734 264.47584908 76.53173828 264.42724609 C74.04460356 264.35748673 71.55745914 264.28808295 69.0703125 264.21875 C67.90461227 264.18593933 67.90461227 264.18593933 66.71536255 264.15246582 C62.22832807 264.02779984 58.38809024 264.07619153 54 265 Z M-26 269 C-25.50655568 274.62526527 -24.72733265 280.18865757 -23.75 285.75 C-23.53859375 287.00296875 -23.3271875 288.2559375 -23.109375 289.546875 C-21.78153631 293.68000669 -20.34609595 295.26607482 -17 298 C-13.8854295 298.71738839 -13.8854295 298.71738839 -10.46557617 298.56762695 C-9.16460495 298.5672493 -7.86363373 298.56687164 -6.52323914 298.56648254 C-5.11313917 298.54095295 -3.70304908 298.51487303 -2.29296875 298.48828125 C-0.84281129 298.47894903 0.607362 298.47183485 2.05754089 298.46684265 C5.863759 298.44780435 9.66901432 298.39873306 13.47485352 298.34332275 C17.36266049 298.29206055 21.25062393 298.26931387 25.13867188 298.24414062 C32.75955224 298.19060936 40.37964092 298.10533738 48 298 C47.80337769 297.42100952 47.60675537 296.84201904 47.4041748 296.2454834 C45.91465775 291.82485601 44.50391384 287.40967766 43.28125 282.90625 C42.84232422 281.33230469 42.84232422 281.33230469 42.39453125 279.7265625 C41.79012761 277.54648648 41.19397733 275.36410799 40.60546875 273.1796875 C40.16654297 271.62121094 40.16654297 271.62121094 39.71875 270.03125 C39.46029297 269.08830078 39.20183594 268.14535156 38.93554688 267.17382812 C38.47245117 266.0977832 38.47245117 266.0977832 38 265 C34.1139044 263.7046348 30.42849799 263.85721295 26.37890625 263.8671875 C25.52376938 263.86623077 24.66863251 263.86527405 23.7875824 263.86428833 C21.97272671 263.86360738 20.15786859 263.86545573 18.34301758 263.86962891 C15.60427143 263.87491931 12.86569376 263.86971196 10.12695312 263.86328125 C-8.54370463 263.37147155 -8.54370463 263.37147155 -26 269 Z M-283 399 C-283 407.25 -283 415.5 -283 424 C-279.9371875 424.0928125 -279.9371875 424.0928125 -276.8125 424.1875 C-258.38858657 425.16413152 -239.82207217 428.75276881 -222.4296875 434.86328125 C-219.12758119 436.15730281 -219.12758119 436.15730281 -216 436 C-216 435.34 -216 434.68 -216 434 C-215.4534375 433.77699219 -214.906875 433.55398438 -214.34375 433.32421875 C-211.28675799 431.59701827 -208.99193492 429.24601743 -206.5 426.8125 C-200.8385128 421.4266425 -194.95475131 417.61301797 -188 414 C-188.495 413.01 -188.495 413.01 -189 412 C-191.31697513 411.23465079 -193.57510553 410.58781916 -195.9375 410 C-196.61611084 409.82484863 -197.29472168 409.64969727 -197.99389648 409.46923828 C-202.5511805 408.3106159 -207.12049883 407.30158844 -211.75390625 406.4921875 C-214 406 -214 406 -216.73535156 405.03393555 C-220.01170906 403.99629166 -223.0783205 403.42916787 -226.48046875 402.96484375 C-227.71796875 402.7956543 -228.95546875 402.62646484 -230.23046875 402.45214844 C-231.53628906 402.28231445 -232.84210938 402.11248047 -234.1875 401.9375 C-234.8568457 401.84940063 -235.52619141 401.76130127 -236.21582031 401.67053223 C-251.83961152 399.62602727 -267.24890336 398.83063337 -283 399 Z M-180 425 C-181.10601562 425.59361328 -181.10601562 425.59361328 -182.234375 426.19921875 C-200.75985051 436.49442727 -212.97544996 451.69486522 -221 471 C-221.47179687 472.02996094 -221.94359375 473.05992187 -222.4296875 474.12109375 C-227.79192791 486.06715005 -229.54363727 498.10284138 -229.4375 511.125 C-229.43427734 512.37240967 -229.43105469 513.61981934 -229.42773438 514.9050293 C-229.26812873 525.618558 -227.69785429 535.65421056 -225 546 C-224.34 546 -223.68 546 -223 546 C-222.90976562 546.80179688 -222.81953125 547.60359375 -222.7265625 548.4296875 C-218.89550574 567.25541801 -206.94963724 583.54593421 -195.30932617 598.28930664 C-194.14299741 599.81316747 -193.06445719 601.40331421 -192 603 C-191.34 603 -190.68 603 -190 603 C-189.74863281 603.57878906 -189.49726563 604.15757812 -189.23828125 604.75390625 C-187.84407086 607.28283677 -186.26209642 608.9343046 -184.1875 610.9375 C-183.52105469 611.58589844 -182.85460937 612.23429688 -182.16796875 612.90234375 C-181.45253906 613.59457031 -180.73710937 614.28679687 -180 615 C-179.27167969 615.76441406 -178.54335938 616.52882813 -177.79296875 617.31640625 C-174.12142714 620.84416721 -170.15901608 623.89996794 -166.125 627 C-165.34769531 627.60328125 -164.57039063 628.2065625 -163.76953125 628.828125 C-156.45338372 635.4711504 -156.45338372 635.4711504 -148 639 C-148 639.66 -148 640.32 -148 641 C-138.33323197 646.50885694 -128.38575092 650.47827212 -117.8125 653.9375 C-116.65008789 654.32671631 -115.48767578 654.71593262 -114.29003906 655.11694336 C-106.50117746 657.58986843 -99.16478971 658.73711051 -91 659 C-93.67462921 656.85207164 -96.09134142 655.41496313 -99.30859375 654.23828125 C-100.13166016 653.92834229 -100.95472656 653.61840332 -101.80273438 653.29907227 C-103.10694336 652.81071899 -103.10694336 652.81071899 -104.4375 652.3125 C-116.84514838 647.49461281 -127.18923955 640.87943071 -137.63671875 632.6875 C-139.78728803 630.80629635 -139.78728803 630.80629635 -142 631 C-142.23976563 630.42121094 -142.47953125 629.84242188 -142.7265625 629.24609375 C-144.25606626 626.54834938 -146.00459547 625.06085075 -148.375 623.0625 C-152.63450641 619.32924075 -156.54954109 615.41661653 -160.375 611.25 C-160.87435059 610.70738525 -161.37370117 610.16477051 -161.88818359 609.60571289 C-167.22555435 603.74360568 -171.58136789 597.65147763 -175.6875 590.875 C-176.18572266 590.06417969 -176.68394531 589.25335937 -177.19726562 588.41796875 C-180.87139423 582.38581731 -180.87139423 582.38581731 -182 579 C-182.66 579 -183.32 579 -184 579 C-184.2475 578.175 -184.495 577.35 -184.75 576.5 C-185.67799661 573.9016095 -186.59381025 571.81275607 -187.8828125 569.421875 C-190.27109196 564.697424 -191.72300055 559.84108267 -193.125 554.75 C-193.38434326 553.81760498 -193.64368652 552.88520996 -193.91088867 551.92456055 C-195.7125572 545.32112623 -197.31069124 538.8232842 -198 532 C-198.06558105 531.36094727 -198.13116211 530.72189453 -198.19873047 530.06347656 C-200.20819231 509.1592908 -198.7791973 486.9613886 -185 470 C-184.28070313 469.09636719 -183.56140625 468.19273437 -182.8203125 467.26171875 C-174.83165181 457.83101547 -165.56578692 451.09898796 -153 450 C-142.3307775 449.18624574 -134.72288696 451.36718674 -126.375 458.125 C-118.69731163 467.41904381 -118.73112296 478.99409534 -119.16015625 490.4921875 C-118.97263465 493.42850128 -118.43091239 495.42525482 -117 498 C-114.70536621 499.09971038 -113.52380845 499.13466331 -111.0703125 498.50390625 C-102.65933645 494.43353431 -99.02008464 487.90477803 -95.76171875 479.39453125 C-91.7738585 466.85833466 -93.14063964 453.64743897 -99 442 C-103.54498401 434.65345157 -109.46608829 429.22907311 -117 425 C-117.66 425 -118.32 425 -119 425 C-119 424.34 -119 423.68 -119 423 C-121.37316118 422.18177267 -123.7482942 421.37031293 -126.125 420.5625 C-126.79015625 420.33240234 -127.4553125 420.10230469 -128.140625 419.86523438 C-144.57253697 414.3073818 -165.0264576 415.78801631 -180 425 Z M24 440 C27.01954845 441.58776994 29.33829127 442.32396688 32.75 442.625 C33.54921875 442.69976563 34.3484375 442.77453125 35.171875 442.8515625 C35.77515625 442.90054687 36.3784375 442.94953125 37 443 C37 443.66 37 444.32 37 445 C38.92199219 445.47179687 38.92199219 445.47179687 40.8828125 445.953125 C42.12840942 446.2612915 42.12840942 446.2612915 43.39916992 446.57568359 C45.23203274 447.02909758 47.06554306 447.47990133 48.8996582 447.92822266 C52.92562266 448.92456324 56.91940335 449.92175903 60.84765625 451.2578125 C70.24286799 454.4005383 78.35049642 454.15030911 88 453 C88.97437012 452.88672363 89.94874023 452.77344727 90.95263672 452.65673828 C102.63463597 451.59419059 102.63463597 451.59419059 114 449 C114 448.34 114 447.68 114 447 C113.21753906 446.86722656 112.43507813 446.73445313 111.62890625 446.59765625 C110.11103516 446.33275391 110.11103516 446.33275391 108.5625 446.0625 C107.04849609 445.80146484 107.04849609 445.80146484 105.50390625 445.53515625 C103 445 103 445 102 444 C76.42904505 438.44636992 49.97880038 439.56859628 24 440 Z M-83 441 C-82.87882812 441.59425781 -82.75765625 442.18851563 -82.6328125 442.80078125 C-82.27585119 444.56636679 -81.92624414 446.33344736 -81.58203125 448.1015625 C-81.21366378 449.93598308 -80.81847893 451.76539456 -80.38671875 453.5859375 C-77.37646086 467.22424874 -79.30286347 481.37388744 -86.4375 493.4375 C-88.62591523 496.67662223 -91.12554661 499.34113061 -94 502 C-94.721875 502.825 -95.44375 503.65 -96.1875 504.5 C-100.03375825 507.91889622 -104.34435569 509.87557978 -109 512 C-107.03681826 515.53372712 -104.95929119 518.24479785 -102 521 C-100.515 520.505 -100.515 520.505 -99 520 C-99 519.34 -99 518.68 -99 518 C-98.443125 517.7525 -97.88625 517.505 -97.3125 517.25 C-94.597148 515.78224216 -92.40278741 513.93395084 -90 512 C-89.071875 511.46375 -88.14375 510.9275 -87.1875 510.375 C-86.1046875 509.694375 -86.1046875 509.694375 -85 509 C-85 508.34 -85 507.68 -85 507 C-82.525 506.505 -82.525 506.505 -80 506 C-80 505.34 -80 504.68 -80 504 C-77.03 503.505 -77.03 503.505 -74 503 C-74 502.34 -74 501.68 -74 501 C-73.39671875 500.86722656 -72.7934375 500.73445313 -72.171875 500.59765625 C-71.37265625 500.42105469 -70.5734375 500.24445313 -69.75 500.0625 C-68.96109375 499.88847656 -68.1721875 499.71445312 -67.359375 499.53515625 C-65.95043006 499.21557768 -64.54613075 498.87184232 -63.15576172 498.47924805 C-58.96287116 497.54712526 -54.65273985 497.77272372 -50.375 497.75 C-49.42753906 497.729375 -48.48007812 497.70875 -47.50390625 497.6875 C-32.65873359 497.60626787 -18.74232809 504.42567663 -8.03125 514.6171875 C1.03834473 525.25651978 5.66586662 537.97615512 5.296875 551.9609375 C4.02564103 564.97435897 4.02564103 564.97435897 0 569 C0 569.99 0 570.98 0 572 C-0.66 572 -1.32 572 -2 572 C-3.22407497 573.45565672 -4.44375301 574.9156288 -5.625 576.40625 C-7.50218107 578.58207351 -9.76206271 580.20965017 -12 582 C-12 582.66 -12 583.32 -12 584 C-7.15245466 585.77113778 -2.29644584 587.51571965 2.5690918 589.23681641 C4.22138985 589.82538591 5.87119182 590.42101385 7.51831055 591.02392578 C9.89263752 591.89162002 12.27491781 592.7331543 14.66015625 593.5703125 C15.75433617 593.97952438 15.75433617 593.97952438 16.87062073 594.39700317 C21.88959551 596.1201767 24.91505134 596.03304652 30 594 C33.3832553 592.1353694 33.3832553 592.1353694 36 590 C36 589.34 36 588.68 36 588 C36.55171875 587.90589844 37.1034375 587.81179688 37.671875 587.71484375 C40.62405565 586.8083856 42.72721344 585.33656482 45.25 583.5625 C46.58804688 582.63630859 46.58804688 582.63630859 47.953125 581.69140625 C48.62859375 581.13324219 49.3040625 580.57507813 50 580 C50 579.34 50 578.68 50 578 C50.598125 577.731875 51.19625 577.46375 51.8125 577.1875 C54.07573361 575.95888747 55.51540577 575.10968654 57 573 C55.20735061 555.51321251 42.94789116 538.13421817 32.8125 524.375 C32.32555664 523.71145508 31.83861328 523.04791016 31.33691406 522.36425781 C28.24222227 518.28060561 25.03247105 515.15951992 21 512 C18.39785034 509.52478447 16.07191195 507.09306252 13.875 504.25 C8.44830633 497.60786389 0.90779631 492.59874707 -5.9609375 487.5390625 C-9.24682928 485.05890663 -12.42090994 482.44038556 -15.60546875 479.83203125 C-19.8749513 476.32309132 -19.8749513 476.32309132 -25 475 C-25 474.34 -25 473.68 -25 473 C-25.97582031 472.45730469 -26.95164062 471.91460938 -27.95703125 471.35546875 C-29.24233367 470.6330725 -30.52748187 469.91040182 -31.8125 469.1875 C-32.45509766 468.83107422 -33.09769531 468.47464844 -33.75976562 468.10742188 C-36.91132572 466.32752524 -39.5049386 464.60385768 -42 462 C-43.53338368 461.07492392 -45.10108886 460.20586158 -46.6875 459.375 C-50.19291175 457.51699137 -53.6700658 455.62842274 -57.10546875 453.64453125 C-57.8116333 453.2386377 -58.51779785 452.83274414 -59.24536133 452.41455078 C-60.64268804 451.60944198 -62.03717265 450.79937598 -63.4284668 449.98388672 C-66.94243045 447.97105489 -69.90547098 446.48217427 -74 446 C-74 445.34 -74 444.68 -74 444 C-78.2637281 441.64089647 -78.2637281 441.64089647 -83 441 Z M-31 451 C-24.71041543 456.71777659 -24.71041543 456.71777659 -17 459 C-17 459.66 -17 460.32 -17 461 C-15.09625645 462.44963959 -13.12532841 463.81184323 -11.125 465.125 C-10.03445313 465.84945313 -8.94390625 466.57390625 -7.8203125 467.3203125 C-5.26071182 469.17056435 -5.26071182 469.17056435 -3 469 C-3 469.66 -3 470.32 -3 471 C-1.67577917 471.90604583 -0.34434529 472.80250238 1.01171875 473.66015625 C5.81536359 476.89719 10.66057726 480.56241966 14.67578125 484.74609375 C15.93809259 486.2291888 15.93809259 486.2291888 18 486 C18.33 486.99 18.66 487.98 19 489 C20.49266722 490.47436179 20.49266722 490.47436179 22.375 491.9375 C26.18616363 495.16073458 29.57650802 498.63411155 32.9375 502.3125 C33.42202637 502.84029053 33.90655273 503.36808105 34.40576172 503.91186523 C37.86509046 507.73018092 37.86509046 507.73018092 39 510 C39.66 510 40.32 510 41 510 C41.2578125 510.55171875 41.515625 511.1034375 41.78125 511.671875 C43.17963125 514.34314175 44.78763305 516.76851909 46.5 519.25 C47.1084375 520.14203125 47.716875 521.0340625 48.34375 521.953125 C48.8903125 522.62859375 49.436875 523.3040625 50 524 C50.66 524 51.32 524 52 524 C52.18332886 524.87132568 52.18332886 524.87132568 52.37036133 525.76025391 C53.01562755 528.05559021 53.87591242 529.78074316 55.07421875 531.8359375 C55.49203613 532.56441895 55.90985352 533.29290039 56.34033203 534.04345703 C56.78489746 534.81286621 57.22946289 535.58227539 57.6875 536.375 C62.05327525 544.05694993 65.75053874 551.7838825 69 560 C76.87771358 552.98987602 81.44156488 541.19760817 82.24609375 530.828125 C82.71380263 517.84566035 79.01104219 507.23021105 71 497 C67.04781916 492.90092395 62.71807894 489.44930894 58.0625 486.1875 C55 484 55 484 53 481 C52.01 481 51.02 481 50 481 C50 480.34 50 479.68 50 479 C45.7362719 476.64089647 45.7362719 476.64089647 41 476 C41 475.34 41 474.68 41 474 C39.75863281 473.37931641 39.75863281 473.37931641 38.4921875 472.74609375 C33.3515625 470.17578125 28.2109375 467.60546875 23.0703125 465.03515625 C22.388479 464.6992749 21.70664551 464.36339355 21.00415039 464.01733398 C19.7336304 463.37240077 18.47738669 462.69782445 17.24389648 461.98461914 C10.58359602 458.25979446 3.19215574 456.93918407 -4.1875 455.3125 C-5.55424799 455.00288544 -6.9207866 454.69234503 -8.28710938 454.38085938 C-11.85469575 453.5714207 -15.42477525 452.77515572 -19 452 C-19.88598877 451.80559326 -20.77197754 451.61118652 -21.68481445 451.41088867 C-24.80401847 450.85730643 -27.84013194 450.9380418 -31 451 Z M133.875 459.9375 C124.64016346 462.18653878 124.64016346 462.18653878 119.875 462.625 C116.02007473 462.99805728 112.70302028 463.9028088 109 465 C106.67212073 465.36950465 104.33954855 465.71352467 102 466 C103.79616598 467.79616598 105.26734579 468.86491046 107.4375 470.125 C108.33275391 470.65480469 108.33275391 470.65480469 109.24609375 471.1953125 C111.13283727 472.2085016 111.13283727 472.2085016 114 472 C114 472.66 114 473.32 114 474 C114.99 474 115.98 474 117 474 C117 474.66 117 475.32 117 476 C120.95717193 479.61103632 125.09596359 482.40892925 130.5625 482.4375 C132.04498111 482.33048992 133.52513944 482.18435757 135 482 C135.7734375 481.91878906 136.546875 481.83757812 137.34375 481.75390625 C139.23350699 481.53764885 141.11771691 481.27378663 143 481 C145.42366587 473.72900239 145.1245184 465.59562221 145 458 C141.12444849 458 137.61012498 459.00753011 133.875 459.9375 Z M-172 476 C-172 476.66 -172 477.32 -172 478 C-172.66 478 -173.32 478 -174 478 C-178.58259844 486.48722342 -182.24639544 494.41830467 -184 504 C-184.13019531 504.70511719 -184.26039063 505.41023437 -184.39453125 506.13671875 C-188.25669621 531.52401643 -179.16877572 558.05817628 -167 580 C-166.34 580 -165.68 580 -165 580 C-164.7525 580.70125 -164.505 581.4025 -164.25 582.125 C-161.70945343 588.00527103 -161.70945343 588.00527103 -157 592 C-155.97862543 593.65365406 -154.98387706 595.32376502 -154 597 C-151.15332 601.40299639 -148.41206834 605.01887274 -144 608 C-143.34 608 -142.68 608 -142 608 C-141.76410156 608.55945313 -141.52820313 609.11890625 -141.28515625 609.6953125 C-137.07158474 617.25156536 -128.69722231 624.12777773 -121 628 C-120.01 628 -119.02 628 -118 628 C-118 628.66 -118 629.32 -118 630 C-117.16597656 630.44730469 -116.33195312 630.89460937 -115.47265625 631.35546875 C-114.34730469 631.96003906 -113.22195313 632.56460938 -112.0625 633.1875 C-111.46566406 633.50630127 -110.86882812 633.82510254 -110.25390625 634.15356445 C-106.95212042 635.92320424 -103.7141422 637.76502242 -100.5 639.6875 C-94.98476282 642.75597741 -89.05652207 644.33177655 -83 646 C-81.7521875 646.35191406 -80.504375 646.70382812 -79.21875 647.06640625 C-66.44933458 650.58318631 -55.19599849 652.32055057 -42 652 C-42 651.67 -42 651.34 -42 651 C-42.91136719 650.86464844 -43.82273437 650.72929688 -44.76171875 650.58984375 C-53.0713744 649.2090353 -60.99271325 647.25435367 -69 644.625 C-69.87100342 644.34519287 -70.74200684 644.06538574 -71.6394043 643.77709961 C-77.32085444 641.85279893 -82.01836516 639.3047164 -87 636 C-88.8916856 634.93013278 -90.78721142 633.86701107 -92.6875 632.8125 C-111.02756075 622.08920225 -126.09505173 606.72436811 -138.1875 589.375 C-138.70763672 588.63765625 -139.22777344 587.9003125 -139.76367188 587.140625 C-142.31817884 583.49971851 -144.77584365 579.85520433 -147 576 C-147.54398438 575.09765625 -148.08796875 574.1953125 -148.6484375 573.265625 C-160.76913902 552.09553093 -164.51528119 525.88632716 -158.63818359 502.14501953 C-154.91359493 489.62618404 -147.4882415 477.60573886 -136 471 C-138.06554906 466.97761499 -139.81064829 464.80903824 -144 463 C-153.88599986 461.66919233 -165.63330076 468.61222635 -172 476 Z M-75 518 C-75 518.66 -75 519.32 -75 520 C-75.81017578 520.37125 -75.81017578 520.37125 -76.63671875 520.75 C-91.13996286 528.42113738 -98.72970794 539.86243481 -103.71484375 555.19921875 C-108.2351475 572.52155064 -106.1622344 590.83203931 -97.62109375 606.53515625 C-94.19320235 611.98055322 -89.96787938 616.89366727 -85 621 C-84.34 621 -83.68 621 -83 621 C-83 621.66 -83 622.32 -83 623 C-77.13985827 627.07996731 -71.02613281 630.56283647 -64 632 C-65.36323743 629.9600281 -65.36323743 629.9600281 -67 628 C-67.66 628 -68.32 628 -69 628 C-69 627.34 -69 626.68 -69 626 C-70.5159375 624.824375 -70.5159375 624.824375 -72.0625 623.625 C-82.28830588 615.07589509 -86.60249941 600.96568779 -87.875 588.125 C-88.53320289 572.90194861 -85.75430761 558.26377279 -75.625 546.4375 C-70.40013195 541.0714193 -64.60527155 536.30084689 -56.890625 535.796875 C-48.19365067 535.68489679 -42.78480086 535.62659054 -36.125 541.5625 C-33.10639008 545.66134826 -32.35959393 549.99771707 -33 555 C-34.63577564 558.92090463 -36.67262307 562.45159344 -39 566 C-36.86666868 569.32799687 -35.63804137 570.79983016 -31.8125 572 C-24.79144883 572 -19.14339037 569.840838 -14 565 C-13.49726562 564.566875 -12.99453125 564.13375 -12.4765625 563.6875 C-8.88761919 559.58585051 -8.05556714 553.33690705 -7.9296875 548.04296875 C-8.72049022 536.48143297 -15.48018786 527.54611933 -24 520 C-24.66 520 -25.32 520 -26 520 C-26 519.34 -26 518.68 -26 518 C-41.57833031 510.57144434 -59.38968996 509.15946727 -75 518 Z M-39 652 C-39 652.33 -39 652.66 -39 653 C-36.36 653 -33.72 653 -31 653 C-31 652.67 -31 652.34 -31 652 C-33.64 652 -36.28 652 -39 652 Z " fill="#FCFCFC" transform="translate(610,291)"/>
<path d="M0 0 C1.9375 0.1875 1.9375 0.1875 4 1 C7.72783148 6.29744474 7.13878326 13.47741372 7.09765625 19.6796875 C7.0962413 20.49245148 7.09482635 21.30521545 7.09336853 22.14260864 C7.08780335 24.72011101 7.0752574 27.2975242 7.0625 29.875 C7.0574805 31.63020707 7.05291838 33.38541552 7.04882812 35.140625 C7.03784534 39.42711732 7.02060492 43.71354357 7 48 C1.04261457 51.1888588 -4.56632581 53.79344274 -11.1875 55.1875 C-11.91670654 55.34839111 -12.64591309 55.50928223 -13.3972168 55.67504883 C-27.19381355 58.62408822 -40.94249069 59.45767984 -55 60 C-55.04987075 56.01647832 -55.08593964 52.0330805 -55.10986328 48.04931641 C-55.12472879 46.03671881 -55.150157 44.02420812 -55.17578125 42.01171875 C-55.25666414 25.91602416 -55.25666414 25.91602416 -51.76000977 21.39770508 C-49.48213022 19.58873568 -47.47900198 19.09303491 -44.66015625 18.38671875 C-43.60272217 18.11142334 -42.54528809 17.83612793 -41.45581055 17.55249023 C-40.33601807 17.26704346 -39.21622559 16.98159668 -38.0625 16.6875 C-29.00436776 14.26768193 -21.14030331 11.67268166 -13 7 C-10.77602704 5.88540934 -8.54681134 4.78121884 -6.3125 3.6875 C-2.9297656 2.1749922 -2.9297656 2.1749922 0 0 Z " fill="#FDFDFD" transform="translate(512,588)"/>
<path d="M0 0 C0.8971875 0.309375 0.8971875 0.309375 1.8125 0.625 C3.86068593 7.73829436 4.77003655 14.96578807 5.67236328 22.29614258 C5.93573273 24.42322676 6.2115176 26.54845042 6.48828125 28.67382812 C8.65492389 45.72126632 8.65492389 45.72126632 7.8125 51.625 C3.04564951 57.49189291 -4.83773906 59.65792619 -12.1875 60.625 C-14.5207999 60.6374909 -16.85420629 60.63859728 -19.1875 60.625 C-19.21236852 54.95076816 -19.23043935 49.27656862 -19.24243164 43.60229492 C-19.24743539 41.67520596 -19.25424045 39.74812075 -19.26293945 37.82104492 C-19.27517948 35.03823924 -19.28076804 32.25548411 -19.28515625 29.47265625 C-19.29031754 28.62228287 -19.29547882 27.77190948 -19.30079651 26.89576721 C-19.30117208 22.81758483 -19.19626067 18.76299446 -18.86889648 14.69702148 C-18.81176987 13.98537338 -18.75464325 13.27372528 -18.69578552 12.54051208 C-18.05799224 10.13694028 -17.09944886 9.17967702 -15.1875 7.625 C-12.868156 6.74609069 -10.54075696 6.11908927 -8.1484375 5.46875 C-7.50132812 5.1903125 -6.85421875 4.911875 -6.1875 4.625 C-5.8575 3.635 -5.5275 2.645 -5.1875 1.625 C-2.1875 -0.375 -2.1875 -0.375 0 0 Z " fill="#FDFDFD" transform="translate(553.1875,558.375)"/>
<path d="M0 0 C0 11.22 0 22.44 0 34 C-10.56 34 -21.12 34 -32 34 C-32.0825 30.37 -32.165 26.74 -32.25 23 C-32.28641602 21.87207031 -32.32283203 20.74414062 -32.36035156 19.58203125 C-32.43311631 12.92523079 -31.6702203 8.61366432 -28 3 C-24.8125 1.5625 -24.8125 1.5625 -21 1 C-20.3296875 0.89300781 -19.659375 0.78601563 -18.96875 0.67578125 C-12.57384393 -0.21626181 -6.54821287 0 0 0 Z " fill="#FDFDFD" transform="translate(441,614)"/>
<path d="M0 0 C0.66163651 0.00424484 1.32327301 0.00848969 2.00495911 0.01286316 C4.11440035 0.02963182 6.22287971 0.06727776 8.33203125 0.10546875 C9.76365806 0.12051807 11.19529987 0.13420605 12.62695312 0.14648438 C16.13312413 0.17952845 19.63873379 0.23129708 23.14453125 0.29296875 C24.24364674 3.59031521 24.25847685 6.0225562 24.2421875 9.4921875 C24.23896484 10.70068359 24.23574219 11.90917969 24.23242188 13.15429688 C24.21985352 15.04825195 24.21985352 15.04825195 24.20703125 16.98046875 C24.20251953 18.25470703 24.19800781 19.52894531 24.19335938 20.84179688 C24.18155998 23.99223439 24.16509722 27.14257824 24.14453125 30.29296875 C19.98155487 30.19892906 15.8191137 30.09272776 11.65673828 29.97558594 C10.24276062 29.93746637 8.8286916 29.90258471 7.41455078 29.87109375 C5.37369285 29.82507017 3.33345465 29.76714208 1.29296875 29.70703125 C0.06755371 29.67561035 -1.15786133 29.64418945 -2.42041016 29.61181641 C-5.84994948 29.29348106 -8.64774108 28.51680059 -11.85546875 27.29296875 C-11.90971888 24.41771206 -11.94926152 21.54349229 -11.98046875 18.66796875 C-11.99722656 17.85972656 -12.01398438 17.05148437 -12.03125 16.21875 C-12.0746161 10.88471927 -11.87114815 6.18693609 -8.71020508 1.64868164 C-5.87591359 -0.42303359 -3.46744965 -0.04389177 0 0 Z " fill="#FDFDFD" transform="translate(372.85546875,617.70703125)"/>
<path d="M0 0 C3.57018853 3.34758685 5.91217209 6.4190977 6.1875 11.375 C6.01135636 14.78044376 5.59461214 16.13852209 4 19 C-1.56927731 19.0053459 -7.13647157 18.97156382 -12.70532227 18.90234375 C-14.59750303 18.88423521 -16.4898155 18.87660588 -18.38208008 18.87988281 C-21.11121488 18.88275483 -23.83764735 18.8472889 -26.56640625 18.8046875 C-27.82463951 18.8183284 -27.82463951 18.8183284 -29.10829163 18.83224487 C-34.65175921 18.69670572 -37.58990172 17.40663975 -41.65391541 13.62600708 C-44.64950001 10.00748133 -45 6.29330755 -45 1.75 C-44 -1 -44 -1 -41.25 -2.8125 C-29.35499107 -7.15875326 -10.84405355 -7.07413718 0 0 Z " fill="#FDFDFD" transform="translate(645,633)"/>
<path d="M0 0 C2.43375 -0.020625 4.8675 -0.04125 7.375 -0.0625 C8.13989746 -0.071604 8.90479492 -0.08070801 9.69287109 -0.09008789 C14.77777778 -0.11111111 14.77777778 -0.11111111 17 1 C17 9.58 17 18.16 17 27 C13 28 13 28 0 27 C0 18.09 0 9.18 0 0 Z " fill="#FDFDFD" transform="translate(334,618)"/>
</svg>
